<mxfile modified="2020-05-24T03:27:39.215Z" host="app.diagrams.net" agent="5.0 (Macintosh; Intel Mac OS X 10_14_1) AppleWebKit/537.36 (KHTML, like Gecko) Chrome/81.0.4044.122 Safari/537.36" etag="7y9R0z0NbrVOXalxm5tc" version="13.0.2" type="github" pages="6">
  <diagram id="4yu-I7fP2pmOIWUfq-cf" name="第 1 页">
    <mxGraphModel dx="1186" dy="693" grid="1" gridSize="10" guides="1" tooltips="1" connect="1" arrows="1" fold="1" page="1" pageScale="1" pageWidth="3300" pageHeight="2339" math="0" shadow="0">
      <root>
        <mxCell id="0" />
        <mxCell id="1" parent="0" />
        <mxCell id="o6ownYerXXe71A7F4dPQ-39" style="edgeStyle=orthogonalEdgeStyle;rounded=0;orthogonalLoop=1;jettySize=auto;html=1;entryX=0.5;entryY=0;entryDx=0;entryDy=0;" parent="1" source="o6ownYerXXe71A7F4dPQ-40" target="o6ownYerXXe71A7F4dPQ-42" edge="1">
          <mxGeometry relative="1" as="geometry" />
        </mxCell>
        <mxCell id="o6ownYerXXe71A7F4dPQ-40" value="登录" style="rounded=1;whiteSpace=wrap;html=1;" parent="1" vertex="1">
          <mxGeometry x="370" y="110" width="120" height="60" as="geometry" />
        </mxCell>
        <mxCell id="o6ownYerXXe71A7F4dPQ-41" style="edgeStyle=orthogonalEdgeStyle;rounded=0;orthogonalLoop=1;jettySize=auto;html=1;entryX=0.5;entryY=0;entryDx=0;entryDy=0;" parent="1" source="o6ownYerXXe71A7F4dPQ-42" target="o6ownYerXXe71A7F4dPQ-46" edge="1">
          <mxGeometry relative="1" as="geometry" />
        </mxCell>
        <mxCell id="o6ownYerXXe71A7F4dPQ-42" value="输入账号密码" style="rounded=0;whiteSpace=wrap;html=1;" parent="1" vertex="1">
          <mxGeometry x="370" y="230" width="120" height="60" as="geometry" />
        </mxCell>
        <mxCell id="o6ownYerXXe71A7F4dPQ-43" style="edgeStyle=orthogonalEdgeStyle;rounded=0;orthogonalLoop=1;jettySize=auto;html=1;entryX=0.5;entryY=0;entryDx=0;entryDy=0;" parent="1" source="o6ownYerXXe71A7F4dPQ-46" target="o6ownYerXXe71A7F4dPQ-55" edge="1">
          <mxGeometry relative="1" as="geometry" />
        </mxCell>
        <mxCell id="o6ownYerXXe71A7F4dPQ-44" value="是" style="text;html=1;resizable=0;points=[];align=center;verticalAlign=middle;labelBackgroundColor=#ffffff;" parent="o6ownYerXXe71A7F4dPQ-43" vertex="1" connectable="0">
          <mxGeometry x="-0.1" y="-1" relative="1" as="geometry">
            <mxPoint as="offset" />
          </mxGeometry>
        </mxCell>
        <mxCell id="o6ownYerXXe71A7F4dPQ-45" value="否" style="edgeStyle=orthogonalEdgeStyle;rounded=0;orthogonalLoop=1;jettySize=auto;html=1;entryX=1;entryY=0.5;entryDx=0;entryDy=0;exitX=1;exitY=0.5;exitDx=0;exitDy=0;" parent="1" source="o6ownYerXXe71A7F4dPQ-46" target="o6ownYerXXe71A7F4dPQ-42" edge="1">
          <mxGeometry relative="1" as="geometry">
            <mxPoint x="500" y="260" as="targetPoint" />
            <Array as="points">
              <mxPoint x="510" y="400" />
              <mxPoint x="510" y="260" />
            </Array>
          </mxGeometry>
        </mxCell>
        <mxCell id="o6ownYerXXe71A7F4dPQ-46" value="账号是否存在" style="rhombus;whiteSpace=wrap;html=1;" parent="1" vertex="1">
          <mxGeometry x="390" y="360" width="80" height="80" as="geometry" />
        </mxCell>
        <mxCell id="o6ownYerXXe71A7F4dPQ-47" value="" style="edgeStyle=orthogonalEdgeStyle;rounded=0;orthogonalLoop=1;jettySize=auto;html=1;" parent="1" source="o6ownYerXXe71A7F4dPQ-48" target="o6ownYerXXe71A7F4dPQ-50" edge="1">
          <mxGeometry relative="1" as="geometry" />
        </mxCell>
        <mxCell id="o6ownYerXXe71A7F4dPQ-48" value="注册主账号" style="rounded=1;whiteSpace=wrap;html=1;" parent="1" vertex="1">
          <mxGeometry x="1455" y="265" width="120" height="60" as="geometry" />
        </mxCell>
        <mxCell id="o6ownYerXXe71A7F4dPQ-49" value="" style="edgeStyle=orthogonalEdgeStyle;rounded=0;orthogonalLoop=1;jettySize=auto;html=1;" parent="1" source="o6ownYerXXe71A7F4dPQ-50" target="o6ownYerXXe71A7F4dPQ-63" edge="1">
          <mxGeometry relative="1" as="geometry" />
        </mxCell>
        <mxCell id="o6ownYerXXe71A7F4dPQ-50" value="填写注册用户相关信息" style="rounded=1;whiteSpace=wrap;html=1;" parent="1" vertex="1">
          <mxGeometry x="1455" y="375" width="120" height="60" as="geometry" />
        </mxCell>
        <mxCell id="o6ownYerXXe71A7F4dPQ-51" style="edgeStyle=orthogonalEdgeStyle;rounded=0;orthogonalLoop=1;jettySize=auto;html=1;entryX=0.5;entryY=0;entryDx=0;entryDy=0;exitX=0.5;exitY=1;exitDx=0;exitDy=0;" parent="1" source="o6ownYerXXe71A7F4dPQ-55" target="o6ownYerXXe71A7F4dPQ-57" edge="1">
          <mxGeometry relative="1" as="geometry">
            <Array as="points">
              <mxPoint x="430" y="630" />
              <mxPoint x="340" y="630" />
            </Array>
          </mxGeometry>
        </mxCell>
        <mxCell id="o6ownYerXXe71A7F4dPQ-52" style="edgeStyle=orthogonalEdgeStyle;rounded=0;orthogonalLoop=1;jettySize=auto;html=1;entryX=0.5;entryY=0;entryDx=0;entryDy=0;exitX=0.5;exitY=1;exitDx=0;exitDy=0;" parent="1" source="o6ownYerXXe71A7F4dPQ-55" target="o6ownYerXXe71A7F4dPQ-58" edge="1">
          <mxGeometry relative="1" as="geometry">
            <Array as="points">
              <mxPoint x="430" y="630" />
              <mxPoint x="570" y="630" />
            </Array>
          </mxGeometry>
        </mxCell>
        <mxCell id="o6ownYerXXe71A7F4dPQ-53" style="edgeStyle=orthogonalEdgeStyle;rounded=0;orthogonalLoop=1;jettySize=auto;html=1;entryX=0.5;entryY=0;entryDx=0;entryDy=0;exitX=0.5;exitY=1;exitDx=0;exitDy=0;" parent="1" source="o6ownYerXXe71A7F4dPQ-55" target="o6ownYerXXe71A7F4dPQ-59" edge="1">
          <mxGeometry relative="1" as="geometry">
            <mxPoint x="190" y="540" as="sourcePoint" />
            <Array as="points">
              <mxPoint x="430" y="630" />
              <mxPoint x="770" y="630" />
            </Array>
          </mxGeometry>
        </mxCell>
        <mxCell id="o6ownYerXXe71A7F4dPQ-54" style="edgeStyle=orthogonalEdgeStyle;rounded=0;orthogonalLoop=1;jettySize=auto;html=1;entryX=0.5;entryY=0;entryDx=0;entryDy=0;" parent="1" source="o6ownYerXXe71A7F4dPQ-55" target="o6ownYerXXe71A7F4dPQ-56" edge="1">
          <mxGeometry relative="1" as="geometry">
            <Array as="points">
              <mxPoint x="430" y="630" />
              <mxPoint x="120" y="630" />
            </Array>
          </mxGeometry>
        </mxCell>
        <mxCell id="o6ownYerXXe71A7F4dPQ-55" value="进入机器人选择界面" style="rounded=0;whiteSpace=wrap;html=1;" parent="1" vertex="1">
          <mxGeometry x="370" y="500" width="120" height="60" as="geometry" />
        </mxCell>
        <mxCell id="o6ownYerXXe71A7F4dPQ-56" value="知识库管理" style="rounded=0;whiteSpace=wrap;html=1;" parent="1" vertex="1">
          <mxGeometry x="40" y="710" width="160" height="60" as="geometry" />
        </mxCell>
        <mxCell id="o6ownYerXXe71A7F4dPQ-57" value="客服工作台" style="rounded=0;whiteSpace=wrap;html=1;" parent="1" vertex="1">
          <mxGeometry x="280" y="710" width="120" height="60" as="geometry" />
        </mxCell>
        <mxCell id="o6ownYerXXe71A7F4dPQ-58" value="运营数据" style="rounded=0;whiteSpace=wrap;html=1;" parent="1" vertex="1">
          <mxGeometry x="510" y="710" width="120" height="60" as="geometry" />
        </mxCell>
        <mxCell id="o6ownYerXXe71A7F4dPQ-59" value="系统管理" style="rounded=0;whiteSpace=wrap;html=1;" parent="1" vertex="1">
          <mxGeometry x="710" y="710" width="120" height="60" as="geometry" />
        </mxCell>
        <mxCell id="o6ownYerXXe71A7F4dPQ-60" value="" style="edgeStyle=orthogonalEdgeStyle;rounded=0;orthogonalLoop=1;jettySize=auto;html=1;" parent="1" source="o6ownYerXXe71A7F4dPQ-63" target="o6ownYerXXe71A7F4dPQ-64" edge="1">
          <mxGeometry relative="1" as="geometry" />
        </mxCell>
        <mxCell id="o6ownYerXXe71A7F4dPQ-61" value="否" style="text;html=1;resizable=0;points=[];align=center;verticalAlign=middle;labelBackgroundColor=#ffffff;" parent="o6ownYerXXe71A7F4dPQ-60" vertex="1" connectable="0">
          <mxGeometry x="-0.575" y="-2" relative="1" as="geometry">
            <mxPoint as="offset" />
          </mxGeometry>
        </mxCell>
        <mxCell id="o6ownYerXXe71A7F4dPQ-62" value="是" style="edgeStyle=orthogonalEdgeStyle;rounded=0;orthogonalLoop=1;jettySize=auto;html=1;entryX=1;entryY=0.5;entryDx=0;entryDy=0;exitX=1;exitY=0.5;exitDx=0;exitDy=0;" parent="1" source="o6ownYerXXe71A7F4dPQ-63" target="o6ownYerXXe71A7F4dPQ-50" edge="1">
          <mxGeometry relative="1" as="geometry">
            <Array as="points">
              <mxPoint x="1605" y="535" />
              <mxPoint x="1605" y="405" />
            </Array>
          </mxGeometry>
        </mxCell>
        <mxCell id="o6ownYerXXe71A7F4dPQ-63" value="账号是否已经注册过" style="rhombus;whiteSpace=wrap;html=1;" parent="1" vertex="1">
          <mxGeometry x="1475" y="495" width="80" height="80" as="geometry" />
        </mxCell>
        <mxCell id="o6ownYerXXe71A7F4dPQ-64" value="主账号注册成功" style="rounded=0;whiteSpace=wrap;html=1;" parent="1" vertex="1">
          <mxGeometry x="1455" y="655" width="120" height="60" as="geometry" />
        </mxCell>
        <mxCell id="o6ownYerXXe71A7F4dPQ-65" value="" style="edgeStyle=orthogonalEdgeStyle;rounded=0;orthogonalLoop=1;jettySize=auto;html=1;" parent="1" source="o6ownYerXXe71A7F4dPQ-66" target="o6ownYerXXe71A7F4dPQ-68" edge="1">
          <mxGeometry relative="1" as="geometry" />
        </mxCell>
        <mxCell id="o6ownYerXXe71A7F4dPQ-66" value="人员管理界面创建子账号" style="rounded=1;whiteSpace=wrap;html=1;" parent="1" vertex="1">
          <mxGeometry x="1095" y="265" width="120" height="60" as="geometry" />
        </mxCell>
        <mxCell id="o6ownYerXXe71A7F4dPQ-67" value="" style="edgeStyle=orthogonalEdgeStyle;rounded=0;orthogonalLoop=1;jettySize=auto;html=1;" parent="1" source="o6ownYerXXe71A7F4dPQ-68" target="o6ownYerXXe71A7F4dPQ-72" edge="1">
          <mxGeometry relative="1" as="geometry" />
        </mxCell>
        <mxCell id="o6ownYerXXe71A7F4dPQ-68" value="输入账号密码相关信息" style="rounded=0;whiteSpace=wrap;html=1;" parent="1" vertex="1">
          <mxGeometry x="1095" y="375" width="120" height="60" as="geometry" />
        </mxCell>
        <mxCell id="o6ownYerXXe71A7F4dPQ-69" value="是" style="edgeStyle=orthogonalEdgeStyle;rounded=0;orthogonalLoop=1;jettySize=auto;html=1;entryX=1;entryY=0.5;entryDx=0;entryDy=0;" parent="1" source="o6ownYerXXe71A7F4dPQ-72" target="o6ownYerXXe71A7F4dPQ-68" edge="1">
          <mxGeometry relative="1" as="geometry">
            <Array as="points">
              <mxPoint x="1235" y="545" />
              <mxPoint x="1235" y="405" />
            </Array>
          </mxGeometry>
        </mxCell>
        <mxCell id="o6ownYerXXe71A7F4dPQ-70" value="" style="edgeStyle=orthogonalEdgeStyle;rounded=0;orthogonalLoop=1;jettySize=auto;html=1;" parent="1" source="o6ownYerXXe71A7F4dPQ-72" target="o6ownYerXXe71A7F4dPQ-73" edge="1">
          <mxGeometry relative="1" as="geometry" />
        </mxCell>
        <mxCell id="o6ownYerXXe71A7F4dPQ-71" value="否" style="text;html=1;resizable=0;points=[];align=center;verticalAlign=middle;labelBackgroundColor=#ffffff;" parent="o6ownYerXXe71A7F4dPQ-70" vertex="1" connectable="0">
          <mxGeometry x="-0.2" y="-1" relative="1" as="geometry">
            <mxPoint as="offset" />
          </mxGeometry>
        </mxCell>
        <mxCell id="o6ownYerXXe71A7F4dPQ-72" value="账号是否在主账号下已存在" style="rhombus;whiteSpace=wrap;html=1;" parent="1" vertex="1">
          <mxGeometry x="1110" y="495" width="90" height="100" as="geometry" />
        </mxCell>
        <mxCell id="o6ownYerXXe71A7F4dPQ-73" value="创建子账号成功" style="rounded=0;whiteSpace=wrap;html=1;" parent="1" vertex="1">
          <mxGeometry x="1095" y="655" width="120" height="60" as="geometry" />
        </mxCell>
        <mxCell id="o6ownYerXXe71A7F4dPQ-74" style="edgeStyle=orthogonalEdgeStyle;rounded=0;orthogonalLoop=1;jettySize=auto;html=1;entryX=0.5;entryY=0;entryDx=0;entryDy=0;" parent="1" source="o6ownYerXXe71A7F4dPQ-76" target="o6ownYerXXe71A7F4dPQ-66" edge="1">
          <mxGeometry relative="1" as="geometry">
            <Array as="points">
              <mxPoint x="1335" y="195" />
              <mxPoint x="1155" y="195" />
            </Array>
          </mxGeometry>
        </mxCell>
        <mxCell id="o6ownYerXXe71A7F4dPQ-75" value="" style="edgeStyle=orthogonalEdgeStyle;rounded=0;orthogonalLoop=1;jettySize=auto;html=1;entryX=0.5;entryY=0;entryDx=0;entryDy=0;" parent="1" source="o6ownYerXXe71A7F4dPQ-76" target="o6ownYerXXe71A7F4dPQ-48" edge="1">
          <mxGeometry relative="1" as="geometry">
            <mxPoint x="1335" y="245" as="targetPoint" />
            <Array as="points">
              <mxPoint x="1335" y="195" />
              <mxPoint x="1515" y="195" />
            </Array>
          </mxGeometry>
        </mxCell>
        <mxCell id="o6ownYerXXe71A7F4dPQ-76" value="账号创建" style="rounded=1;whiteSpace=wrap;html=1;fillColor=#ffffff;" parent="1" vertex="1">
          <mxGeometry x="1275" y="105" width="120" height="60" as="geometry" />
        </mxCell>
      </root>
    </mxGraphModel>
  </diagram>
  <diagram id="efcP3kPmUKLdeeVnryXC" name="第 2 页">
    <mxGraphModel dx="1186" dy="693" grid="1" gridSize="10" guides="1" tooltips="1" connect="1" arrows="1" fold="1" page="1" pageScale="1" pageWidth="3300" pageHeight="2339" math="0" shadow="0">
      <root>
        <mxCell id="QxZWdDMmEj1ui6j7b_4M-0" />
        <mxCell id="QxZWdDMmEj1ui6j7b_4M-1" parent="QxZWdDMmEj1ui6j7b_4M-0" />
        <mxCell id="G0f8pveVnyR9JYDoNXZs-0" style="edgeStyle=orthogonalEdgeStyle;rounded=0;orthogonalLoop=1;jettySize=auto;html=1;entryX=0.5;entryY=0;entryDx=0;entryDy=0;" parent="QxZWdDMmEj1ui6j7b_4M-1" source="G0f8pveVnyR9JYDoNXZs-3" target="G0f8pveVnyR9JYDoNXZs-4" edge="1">
          <mxGeometry relative="1" as="geometry" />
        </mxCell>
        <mxCell id="G0f8pveVnyR9JYDoNXZs-1" style="edgeStyle=orthogonalEdgeStyle;rounded=0;orthogonalLoop=1;jettySize=auto;html=1;exitX=1;exitY=0.5;exitDx=0;exitDy=0;entryX=0.5;entryY=0;entryDx=0;entryDy=0;" parent="QxZWdDMmEj1ui6j7b_4M-1" source="G0f8pveVnyR9JYDoNXZs-4" target="G0f8pveVnyR9JYDoNXZs-12" edge="1">
          <mxGeometry relative="1" as="geometry" />
        </mxCell>
        <mxCell id="G0f8pveVnyR9JYDoNXZs-2" value="否" style="text;html=1;resizable=0;points=[];align=center;verticalAlign=middle;labelBackgroundColor=#ffffff;" parent="G0f8pveVnyR9JYDoNXZs-1" vertex="1" connectable="0">
          <mxGeometry x="0.083" y="2" relative="1" as="geometry">
            <mxPoint as="offset" />
          </mxGeometry>
        </mxCell>
        <mxCell id="G0f8pveVnyR9JYDoNXZs-3" value="权限校验进入" style="rounded=0;whiteSpace=wrap;html=1;" parent="QxZWdDMmEj1ui6j7b_4M-1" vertex="1">
          <mxGeometry x="600" y="100" width="120" height="60" as="geometry" />
        </mxCell>
        <mxCell id="G0f8pveVnyR9JYDoNXZs-4" value="接口是否校验" style="rhombus;whiteSpace=wrap;html=1;" parent="QxZWdDMmEj1ui6j7b_4M-1" vertex="1">
          <mxGeometry x="600" y="210" width="120" height="80" as="geometry" />
        </mxCell>
        <mxCell id="G0f8pveVnyR9JYDoNXZs-5" style="edgeStyle=orthogonalEdgeStyle;rounded=0;orthogonalLoop=1;jettySize=auto;html=1;entryX=0.5;entryY=0;entryDx=0;entryDy=0;" parent="QxZWdDMmEj1ui6j7b_4M-1" source="G0f8pveVnyR9JYDoNXZs-6" target="G0f8pveVnyR9JYDoNXZs-18" edge="1">
          <mxGeometry relative="1" as="geometry" />
        </mxCell>
        <mxCell id="G0f8pveVnyR9JYDoNXZs-6" value="执行权限校验" style="rounded=0;whiteSpace=wrap;html=1;" parent="QxZWdDMmEj1ui6j7b_4M-1" vertex="1">
          <mxGeometry x="600" y="360" width="120" height="60" as="geometry" />
        </mxCell>
        <mxCell id="G0f8pveVnyR9JYDoNXZs-7" style="edgeStyle=orthogonalEdgeStyle;rounded=0;orthogonalLoop=1;jettySize=auto;html=1;entryX=0;entryY=0.5;entryDx=0;entryDy=0;" parent="QxZWdDMmEj1ui6j7b_4M-1" source="G0f8pveVnyR9JYDoNXZs-10" target="G0f8pveVnyR9JYDoNXZs-12" edge="1">
          <mxGeometry relative="1" as="geometry" />
        </mxCell>
        <mxCell id="G0f8pveVnyR9JYDoNXZs-8" value="通过" style="text;html=1;resizable=0;points=[];align=center;verticalAlign=middle;labelBackgroundColor=#ffffff;" parent="G0f8pveVnyR9JYDoNXZs-7" vertex="1" connectable="0">
          <mxGeometry x="-0.3274" y="2" relative="1" as="geometry">
            <mxPoint as="offset" />
          </mxGeometry>
        </mxCell>
        <mxCell id="G0f8pveVnyR9JYDoNXZs-9" value="否" style="edgeStyle=orthogonalEdgeStyle;rounded=0;orthogonalLoop=1;jettySize=auto;html=1;exitX=0.5;exitY=1;exitDx=0;exitDy=0;" parent="QxZWdDMmEj1ui6j7b_4M-1" source="G0f8pveVnyR9JYDoNXZs-10" target="G0f8pveVnyR9JYDoNXZs-19" edge="1">
          <mxGeometry relative="1" as="geometry" />
        </mxCell>
        <mxCell id="G0f8pveVnyR9JYDoNXZs-10" value="权限校验通过" style="rhombus;whiteSpace=wrap;html=1;" parent="QxZWdDMmEj1ui6j7b_4M-1" vertex="1">
          <mxGeometry x="600" y="610" width="120" height="80" as="geometry" />
        </mxCell>
        <mxCell id="G0f8pveVnyR9JYDoNXZs-11" style="edgeStyle=orthogonalEdgeStyle;rounded=0;orthogonalLoop=1;jettySize=auto;html=1;entryX=0.5;entryY=0;entryDx=0;entryDy=0;" parent="QxZWdDMmEj1ui6j7b_4M-1" source="G0f8pveVnyR9JYDoNXZs-12" target="G0f8pveVnyR9JYDoNXZs-22" edge="1">
          <mxGeometry relative="1" as="geometry" />
        </mxCell>
        <mxCell id="G0f8pveVnyR9JYDoNXZs-12" value="执行业务服务" style="rounded=0;whiteSpace=wrap;html=1;" parent="QxZWdDMmEj1ui6j7b_4M-1" vertex="1">
          <mxGeometry x="833" y="620" width="120" height="60" as="geometry" />
        </mxCell>
        <mxCell id="G0f8pveVnyR9JYDoNXZs-13" value="是" style="endArrow=classic;html=1;" parent="QxZWdDMmEj1ui6j7b_4M-1" edge="1">
          <mxGeometry width="50" height="50" relative="1" as="geometry">
            <mxPoint x="660" y="290" as="sourcePoint" />
            <mxPoint x="660" y="360" as="targetPoint" />
            <Array as="points">
              <mxPoint x="660" y="360" />
            </Array>
          </mxGeometry>
        </mxCell>
        <mxCell id="G0f8pveVnyR9JYDoNXZs-14" value="抛出异常" style="rounded=0;whiteSpace=wrap;html=1;" parent="QxZWdDMmEj1ui6j7b_4M-1" vertex="1">
          <mxGeometry x="430" y="490" width="120" height="60" as="geometry" />
        </mxCell>
        <mxCell id="G0f8pveVnyR9JYDoNXZs-15" value="是" style="edgeStyle=orthogonalEdgeStyle;rounded=0;orthogonalLoop=1;jettySize=auto;html=1;entryX=1;entryY=0.5;entryDx=0;entryDy=0;" parent="QxZWdDMmEj1ui6j7b_4M-1" source="G0f8pveVnyR9JYDoNXZs-18" target="G0f8pveVnyR9JYDoNXZs-14" edge="1">
          <mxGeometry relative="1" as="geometry" />
        </mxCell>
        <mxCell id="G0f8pveVnyR9JYDoNXZs-16" style="edgeStyle=orthogonalEdgeStyle;rounded=0;orthogonalLoop=1;jettySize=auto;html=1;exitX=0.5;exitY=1;exitDx=0;exitDy=0;entryX=0.5;entryY=0;entryDx=0;entryDy=0;" parent="QxZWdDMmEj1ui6j7b_4M-1" source="G0f8pveVnyR9JYDoNXZs-18" target="G0f8pveVnyR9JYDoNXZs-10" edge="1">
          <mxGeometry relative="1" as="geometry" />
        </mxCell>
        <mxCell id="G0f8pveVnyR9JYDoNXZs-17" value="否" style="text;html=1;resizable=0;points=[];align=center;verticalAlign=middle;labelBackgroundColor=#ffffff;" parent="G0f8pveVnyR9JYDoNXZs-16" vertex="1" connectable="0">
          <mxGeometry x="-0.32" relative="1" as="geometry">
            <mxPoint as="offset" />
          </mxGeometry>
        </mxCell>
        <mxCell id="G0f8pveVnyR9JYDoNXZs-18" value="是否有异常" style="rhombus;whiteSpace=wrap;html=1;" parent="QxZWdDMmEj1ui6j7b_4M-1" vertex="1">
          <mxGeometry x="600" y="480" width="120" height="80" as="geometry" />
        </mxCell>
        <mxCell id="G0f8pveVnyR9JYDoNXZs-19" value="抛出异常" style="rounded=0;whiteSpace=wrap;html=1;" parent="QxZWdDMmEj1ui6j7b_4M-1" vertex="1">
          <mxGeometry x="600" y="760" width="120" height="60" as="geometry" />
        </mxCell>
        <mxCell id="G0f8pveVnyR9JYDoNXZs-20" value="否" style="edgeStyle=orthogonalEdgeStyle;rounded=0;orthogonalLoop=1;jettySize=auto;html=1;exitX=0.5;exitY=1;exitDx=0;exitDy=0;" parent="QxZWdDMmEj1ui6j7b_4M-1" source="G0f8pveVnyR9JYDoNXZs-22" target="G0f8pveVnyR9JYDoNXZs-23" edge="1">
          <mxGeometry relative="1" as="geometry" />
        </mxCell>
        <mxCell id="G0f8pveVnyR9JYDoNXZs-21" value="是" style="edgeStyle=orthogonalEdgeStyle;rounded=0;orthogonalLoop=1;jettySize=auto;html=1;exitX=1;exitY=0.5;exitDx=0;exitDy=0;entryX=0;entryY=0.5;entryDx=0;entryDy=0;" parent="QxZWdDMmEj1ui6j7b_4M-1" source="G0f8pveVnyR9JYDoNXZs-22" target="G0f8pveVnyR9JYDoNXZs-24" edge="1">
          <mxGeometry relative="1" as="geometry" />
        </mxCell>
        <mxCell id="G0f8pveVnyR9JYDoNXZs-22" value="是否有异常" style="rhombus;whiteSpace=wrap;html=1;" parent="QxZWdDMmEj1ui6j7b_4M-1" vertex="1">
          <mxGeometry x="833" y="740" width="120" height="80" as="geometry" />
        </mxCell>
        <mxCell id="G0f8pveVnyR9JYDoNXZs-23" value="结果返回" style="rounded=0;whiteSpace=wrap;html=1;" parent="QxZWdDMmEj1ui6j7b_4M-1" vertex="1">
          <mxGeometry x="833" y="880" width="120" height="60" as="geometry" />
        </mxCell>
        <mxCell id="G0f8pveVnyR9JYDoNXZs-24" value="抛出异常" style="rounded=0;whiteSpace=wrap;html=1;" parent="QxZWdDMmEj1ui6j7b_4M-1" vertex="1">
          <mxGeometry x="1030" y="750" width="120" height="60" as="geometry" />
        </mxCell>
      </root>
    </mxGraphModel>
  </diagram>
  <diagram id="7bMTc8mylpo92-0J4rBh" name="第 3 页">
    <mxGraphModel dx="1186" dy="693" grid="1" gridSize="10" guides="1" tooltips="1" connect="1" arrows="1" fold="1" page="1" pageScale="1" pageWidth="3300" pageHeight="2339" math="0" shadow="0">
      <root>
        <mxCell id="1jFSZwMZ8JVFFdRL8FQg-0" />
        <mxCell id="1jFSZwMZ8JVFFdRL8FQg-1" parent="1jFSZwMZ8JVFFdRL8FQg-0" />
        <mxCell id="1jFSZwMZ8JVFFdRL8FQg-2" style="edgeStyle=orthogonalEdgeStyle;rounded=0;orthogonalLoop=1;jettySize=auto;html=1;entryX=0.5;entryY=0;entryDx=0;entryDy=0;" parent="1jFSZwMZ8JVFFdRL8FQg-1" source="1jFSZwMZ8JVFFdRL8FQg-3" target="1jFSZwMZ8JVFFdRL8FQg-14" edge="1">
          <mxGeometry relative="1" as="geometry" />
        </mxCell>
        <mxCell id="1jFSZwMZ8JVFFdRL8FQg-3" value="问题泛化" style="rounded=0;whiteSpace=wrap;html=1;" parent="1jFSZwMZ8JVFFdRL8FQg-1" vertex="1">
          <mxGeometry x="467" y="415" width="120" height="50" as="geometry" />
        </mxCell>
        <mxCell id="1jFSZwMZ8JVFFdRL8FQg-4" value="泛化表" style="swimlane;fontStyle=0;childLayout=stackLayout;horizontal=1;startSize=26;fillColor=#e0e0e0;horizontalStack=0;resizeParent=1;resizeParentMax=0;resizeLast=0;collapsible=1;marginBottom=0;swimlaneFillColor=#ffffff;align=center;fontSize=14;" parent="1jFSZwMZ8JVFFdRL8FQg-1" vertex="1">
          <mxGeometry x="447" y="790" width="160" height="104" as="geometry" />
        </mxCell>
        <mxCell id="1jFSZwMZ8JVFFdRL8FQg-5" value="Row 1" style="text;strokeColor=none;fillColor=none;spacingLeft=4;spacingRight=4;overflow=hidden;rotatable=0;points=[[0,0.5],[1,0.5]];portConstraint=eastwest;fontSize=12;" parent="1jFSZwMZ8JVFFdRL8FQg-4" vertex="1">
          <mxGeometry y="26" width="160" height="26" as="geometry" />
        </mxCell>
        <mxCell id="1jFSZwMZ8JVFFdRL8FQg-6" value="Row 2" style="text;strokeColor=none;fillColor=none;spacingLeft=4;spacingRight=4;overflow=hidden;rotatable=0;points=[[0,0.5],[1,0.5]];portConstraint=eastwest;fontSize=12;" parent="1jFSZwMZ8JVFFdRL8FQg-4" vertex="1">
          <mxGeometry y="52" width="160" height="26" as="geometry" />
        </mxCell>
        <mxCell id="1jFSZwMZ8JVFFdRL8FQg-7" value="Row 3" style="text;strokeColor=none;fillColor=none;spacingLeft=4;spacingRight=4;overflow=hidden;rotatable=0;points=[[0,0.5],[1,0.5]];portConstraint=eastwest;fontSize=12;" parent="1jFSZwMZ8JVFFdRL8FQg-4" vertex="1">
          <mxGeometry y="78" width="160" height="26" as="geometry" />
        </mxCell>
        <mxCell id="1jFSZwMZ8JVFFdRL8FQg-8" value="从接口拿到数据" style="edgeStyle=orthogonalEdgeStyle;rounded=0;orthogonalLoop=1;jettySize=auto;html=1;entryX=1.013;entryY=0.269;entryDx=0;entryDy=0;entryPerimeter=0;" parent="1jFSZwMZ8JVFFdRL8FQg-1" source="1jFSZwMZ8JVFFdRL8FQg-9" target="1jFSZwMZ8JVFFdRL8FQg-6" edge="1">
          <mxGeometry relative="1" as="geometry">
            <mxPoint x="767" y="680" as="targetPoint" />
          </mxGeometry>
        </mxCell>
        <mxCell id="1jFSZwMZ8JVFFdRL8FQg-9" value="接口" style="ellipse;shape=cloud;whiteSpace=wrap;html=1;" parent="1jFSZwMZ8JVFFdRL8FQg-1" vertex="1">
          <mxGeometry x="800" y="530" width="120" height="80" as="geometry" />
        </mxCell>
        <mxCell id="1jFSZwMZ8JVFFdRL8FQg-10" style="edgeStyle=orthogonalEdgeStyle;rounded=0;orthogonalLoop=1;jettySize=auto;html=1;entryX=0.5;entryY=0;entryDx=0;entryDy=0;" parent="1jFSZwMZ8JVFFdRL8FQg-1" source="1jFSZwMZ8JVFFdRL8FQg-14" target="1jFSZwMZ8JVFFdRL8FQg-4" edge="1">
          <mxGeometry relative="1" as="geometry" />
        </mxCell>
        <mxCell id="1jFSZwMZ8JVFFdRL8FQg-11" value="是" style="text;html=1;resizable=0;points=[];align=center;verticalAlign=middle;labelBackgroundColor=#ffffff;" parent="1jFSZwMZ8JVFFdRL8FQg-10" vertex="1" connectable="0">
          <mxGeometry x="-0.3" relative="1" as="geometry">
            <mxPoint as="offset" />
          </mxGeometry>
        </mxCell>
        <mxCell id="1jFSZwMZ8JVFFdRL8FQg-12" style="edgeStyle=orthogonalEdgeStyle;rounded=0;orthogonalLoop=1;jettySize=auto;html=1;entryX=0.1;entryY=0.688;entryDx=0;entryDy=0;entryPerimeter=0;" parent="1jFSZwMZ8JVFFdRL8FQg-1" source="1jFSZwMZ8JVFFdRL8FQg-14" target="1jFSZwMZ8JVFFdRL8FQg-9" edge="1">
          <mxGeometry relative="1" as="geometry" />
        </mxCell>
        <mxCell id="1jFSZwMZ8JVFFdRL8FQg-13" value="否" style="text;html=1;resizable=0;points=[];align=center;verticalAlign=middle;labelBackgroundColor=#ffffff;" parent="1jFSZwMZ8JVFFdRL8FQg-12" vertex="1" connectable="0">
          <mxGeometry x="-0.3305" y="1" relative="1" as="geometry">
            <mxPoint x="1" as="offset" />
          </mxGeometry>
        </mxCell>
        <mxCell id="1jFSZwMZ8JVFFdRL8FQg-14" value="数据是否在泛化表" style="rhombus;whiteSpace=wrap;html=1;" parent="1jFSZwMZ8JVFFdRL8FQg-1" vertex="1">
          <mxGeometry x="473.5" y="540" width="107" height="90" as="geometry" />
        </mxCell>
        <mxCell id="1jFSZwMZ8JVFFdRL8FQg-15" style="edgeStyle=orthogonalEdgeStyle;rounded=0;orthogonalLoop=1;jettySize=auto;html=1;entryX=0.5;entryY=0;entryDx=0;entryDy=0;" parent="1jFSZwMZ8JVFFdRL8FQg-1" source="1jFSZwMZ8JVFFdRL8FQg-16" target="1jFSZwMZ8JVFFdRL8FQg-3" edge="1">
          <mxGeometry relative="1" as="geometry">
            <Array as="points">
              <mxPoint x="270" y="350" />
              <mxPoint x="527" y="350" />
            </Array>
          </mxGeometry>
        </mxCell>
        <mxCell id="1jFSZwMZ8JVFFdRL8FQg-16" value="新增问题" style="rounded=1;whiteSpace=wrap;html=1;" parent="1jFSZwMZ8JVFFdRL8FQg-1" vertex="1">
          <mxGeometry x="210" y="260" width="120" height="60" as="geometry" />
        </mxCell>
        <mxCell id="1jFSZwMZ8JVFFdRL8FQg-17" style="edgeStyle=orthogonalEdgeStyle;rounded=0;orthogonalLoop=1;jettySize=auto;html=1;entryX=0.5;entryY=0;entryDx=0;entryDy=0;" parent="1jFSZwMZ8JVFFdRL8FQg-1" source="1jFSZwMZ8JVFFdRL8FQg-18" target="1jFSZwMZ8JVFFdRL8FQg-3" edge="1">
          <mxGeometry relative="1" as="geometry">
            <Array as="points">
              <mxPoint x="480" y="350" />
              <mxPoint x="527" y="350" />
            </Array>
          </mxGeometry>
        </mxCell>
        <mxCell id="1jFSZwMZ8JVFFdRL8FQg-18" value="编辑问题" style="rounded=1;whiteSpace=wrap;html=1;" parent="1jFSZwMZ8JVFFdRL8FQg-1" vertex="1">
          <mxGeometry x="430" y="260" width="120" height="60" as="geometry" />
        </mxCell>
        <mxCell id="1jFSZwMZ8JVFFdRL8FQg-19" style="edgeStyle=orthogonalEdgeStyle;rounded=0;orthogonalLoop=1;jettySize=auto;html=1;entryX=0.5;entryY=0;entryDx=0;entryDy=0;" parent="1jFSZwMZ8JVFFdRL8FQg-1" source="1jFSZwMZ8JVFFdRL8FQg-20" target="1jFSZwMZ8JVFFdRL8FQg-3" edge="1">
          <mxGeometry relative="1" as="geometry">
            <Array as="points">
              <mxPoint x="670" y="350" />
              <mxPoint x="527" y="350" />
            </Array>
          </mxGeometry>
        </mxCell>
        <mxCell id="1jFSZwMZ8JVFFdRL8FQg-20" value="批量导入" style="rounded=1;whiteSpace=wrap;html=1;" parent="1jFSZwMZ8JVFFdRL8FQg-1" vertex="1">
          <mxGeometry x="630" y="260" width="120" height="60" as="geometry" />
        </mxCell>
        <mxCell id="1jFSZwMZ8JVFFdRL8FQg-21" style="edgeStyle=orthogonalEdgeStyle;rounded=0;orthogonalLoop=1;jettySize=auto;html=1;entryX=0.5;entryY=0;entryDx=0;entryDy=0;" parent="1jFSZwMZ8JVFFdRL8FQg-1" source="1jFSZwMZ8JVFFdRL8FQg-22" target="1jFSZwMZ8JVFFdRL8FQg-3" edge="1">
          <mxGeometry relative="1" as="geometry">
            <Array as="points">
              <mxPoint x="870" y="350" />
              <mxPoint x="527" y="350" />
            </Array>
          </mxGeometry>
        </mxCell>
        <mxCell id="1jFSZwMZ8JVFFdRL8FQg-22" value="推荐相似问题" style="rounded=1;whiteSpace=wrap;html=1;" parent="1jFSZwMZ8JVFFdRL8FQg-1" vertex="1">
          <mxGeometry x="810" y="260" width="120" height="60" as="geometry" />
        </mxCell>
        <mxCell id="1jFSZwMZ8JVFFdRL8FQg-23" value="&lt;font style=&quot;font-size: 20px&quot;&gt;相似问题泛化功能模块流程图&lt;/font&gt;" style="text;html=1;resizable=0;points=[];autosize=1;align=left;verticalAlign=top;spacingTop=-4;" parent="1jFSZwMZ8JVFFdRL8FQg-1" vertex="1">
          <mxGeometry x="410" y="990" width="280" height="20" as="geometry" />
        </mxCell>
      </root>
    </mxGraphModel>
  </diagram>
  <diagram id="sviUyA3pYoGq6EuBfVOc" name="第 4 页">
    <mxGraphModel dx="1186" dy="693" grid="1" gridSize="10" guides="1" tooltips="1" connect="1" arrows="1" fold="1" page="1" pageScale="1" pageWidth="3300" pageHeight="2339" math="0" shadow="0">
      <root>
        <mxCell id="mLO2A5zKVwlfzyqch5PW-0" />
        <mxCell id="mLO2A5zKVwlfzyqch5PW-1" parent="mLO2A5zKVwlfzyqch5PW-0" />
        <mxCell id="mLO2A5zKVwlfzyqch5PW-2" value="&lt;font style=&quot;font-size: 23px&quot;&gt;权限角色账号功能与数据流转图&lt;/font&gt;" style="text;html=1;resizable=0;points=[];autosize=1;align=left;verticalAlign=top;spacingTop=-4;" parent="mLO2A5zKVwlfzyqch5PW-1" vertex="1">
          <mxGeometry x="680" y="42" width="340" height="20" as="geometry" />
        </mxCell>
        <mxCell id="mLO2A5zKVwlfzyqch5PW-3" value="&lt;div style=&quot;box-sizing: border-box ; width: 100% ; background: #e4e4e4 ; padding: 2px&quot;&gt;t_user_chats&lt;/div&gt;&lt;table style=&quot;width: 100% ; font-size: 1em&quot; cellpadding=&quot;2&quot; cellspacing=&quot;0&quot;&gt;&lt;tbody&gt;&lt;tr&gt;&lt;td&gt;PK&lt;/td&gt;&lt;td&gt;uniqueId&lt;/td&gt;&lt;/tr&gt;&lt;tr&gt;&lt;td&gt;FK1&lt;/td&gt;&lt;td&gt;foreignKey&lt;/td&gt;&lt;/tr&gt;&lt;tr&gt;&lt;td&gt;&lt;/td&gt;&lt;td&gt;account&lt;br&gt;password&lt;br&gt;parent_id&lt;br&gt;domain&lt;/td&gt;&lt;/tr&gt;&lt;/tbody&gt;&lt;/table&gt;" style="verticalAlign=top;align=left;overflow=fill;html=1;fillColor=#ffffff;" parent="mLO2A5zKVwlfzyqch5PW-1" vertex="1">
          <mxGeometry x="110" y="180" width="180" height="120" as="geometry" />
        </mxCell>
      </root>
    </mxGraphModel>
  </diagram>
  <diagram id="OOKq7S7Q9HrQQsEHXQpj" name="第 5 页">
    <mxGraphModel dx="1186" dy="693" grid="1" gridSize="10" guides="1" tooltips="1" connect="1" arrows="1" fold="1" page="1" pageScale="1" pageWidth="3300" pageHeight="2339" math="0" shadow="0">
      <root>
        <mxCell id="x6ucu1gScdw3U6hhoFzT-0" />
        <mxCell id="x6ucu1gScdw3U6hhoFzT-1" parent="x6ucu1gScdw3U6hhoFzT-0" />
        <mxCell id="x6ucu1gScdw3U6hhoFzT-2" value="知识库大小写不区分" style="rounded=0;whiteSpace=wrap;html=1;" parent="x6ucu1gScdw3U6hhoFzT-1" vertex="1">
          <mxGeometry x="340" y="30" width="120" height="60" as="geometry" />
        </mxCell>
        <mxCell id="24glDGVcfb9FLjP_R1ya-9" style="edgeStyle=orthogonalEdgeStyle;rounded=0;orthogonalLoop=1;jettySize=auto;html=1;entryX=0.5;entryY=0;entryDx=0;entryDy=0;" parent="x6ucu1gScdw3U6hhoFzT-1" source="24glDGVcfb9FLjP_R1ya-0" target="24glDGVcfb9FLjP_R1ya-6" edge="1">
          <mxGeometry relative="1" as="geometry">
            <Array as="points">
              <mxPoint x="210" y="320" />
              <mxPoint x="400" y="320" />
            </Array>
          </mxGeometry>
        </mxCell>
        <mxCell id="24glDGVcfb9FLjP_R1ya-0" value="新增问题" style="rounded=0;whiteSpace=wrap;html=1;" parent="x6ucu1gScdw3U6hhoFzT-1" vertex="1">
          <mxGeometry x="150" y="220" width="120" height="60" as="geometry" />
        </mxCell>
        <mxCell id="24glDGVcfb9FLjP_R1ya-10" style="edgeStyle=orthogonalEdgeStyle;rounded=0;orthogonalLoop=1;jettySize=auto;html=1;entryX=0.5;entryY=0;entryDx=0;entryDy=0;" parent="x6ucu1gScdw3U6hhoFzT-1" source="24glDGVcfb9FLjP_R1ya-1" target="24glDGVcfb9FLjP_R1ya-6" edge="1">
          <mxGeometry relative="1" as="geometry">
            <Array as="points">
              <mxPoint x="400" y="310" />
              <mxPoint x="400" y="310" />
            </Array>
          </mxGeometry>
        </mxCell>
        <mxCell id="24glDGVcfb9FLjP_R1ya-1" value="编辑问题" style="rounded=0;whiteSpace=wrap;html=1;" parent="x6ucu1gScdw3U6hhoFzT-1" vertex="1">
          <mxGeometry x="350" y="220" width="120" height="60" as="geometry" />
        </mxCell>
        <mxCell id="24glDGVcfb9FLjP_R1ya-11" style="edgeStyle=orthogonalEdgeStyle;rounded=0;orthogonalLoop=1;jettySize=auto;html=1;entryX=0.5;entryY=0;entryDx=0;entryDy=0;" parent="x6ucu1gScdw3U6hhoFzT-1" source="24glDGVcfb9FLjP_R1ya-3" target="24glDGVcfb9FLjP_R1ya-6" edge="1">
          <mxGeometry relative="1" as="geometry">
            <mxPoint x="400" y="380" as="targetPoint" />
            <Array as="points">
              <mxPoint x="610" y="320" />
              <mxPoint x="400" y="320" />
            </Array>
          </mxGeometry>
        </mxCell>
        <mxCell id="24glDGVcfb9FLjP_R1ya-3" value="批量导入" style="rounded=0;whiteSpace=wrap;html=1;" parent="x6ucu1gScdw3U6hhoFzT-1" vertex="1">
          <mxGeometry x="550" y="220" width="120" height="60" as="geometry" />
        </mxCell>
        <mxCell id="24glDGVcfb9FLjP_R1ya-12" value="否" style="edgeStyle=orthogonalEdgeStyle;rounded=0;orthogonalLoop=1;jettySize=auto;html=1;entryX=0.5;entryY=0;entryDx=0;entryDy=0;" parent="x6ucu1gScdw3U6hhoFzT-1" source="24glDGVcfb9FLjP_R1ya-5" target="24glDGVcfb9FLjP_R1ya-8" edge="1">
          <mxGeometry relative="1" as="geometry" />
        </mxCell>
        <mxCell id="24glDGVcfb9FLjP_R1ya-5" value="question_id是否已经存在" style="rhombus;whiteSpace=wrap;html=1;" parent="x6ucu1gScdw3U6hhoFzT-1" vertex="1">
          <mxGeometry x="340" y="510" width="120" height="120" as="geometry" />
        </mxCell>
        <mxCell id="24glDGVcfb9FLjP_R1ya-7" value="" style="edgeStyle=orthogonalEdgeStyle;rounded=0;orthogonalLoop=1;jettySize=auto;html=1;" parent="x6ucu1gScdw3U6hhoFzT-1" source="24glDGVcfb9FLjP_R1ya-6" target="24glDGVcfb9FLjP_R1ya-5" edge="1">
          <mxGeometry relative="1" as="geometry" />
        </mxCell>
        <mxCell id="24glDGVcfb9FLjP_R1ya-6" value="md5(小写(question))" style="rounded=0;whiteSpace=wrap;html=1;" parent="x6ucu1gScdw3U6hhoFzT-1" vertex="1">
          <mxGeometry x="340" y="390" width="120" height="60" as="geometry" />
        </mxCell>
        <mxCell id="24glDGVcfb9FLjP_R1ya-8" value="入库" style="rounded=0;whiteSpace=wrap;html=1;" parent="x6ucu1gScdw3U6hhoFzT-1" vertex="1">
          <mxGeometry x="340" y="740" width="120" height="60" as="geometry" />
        </mxCell>
      </root>
    </mxGraphModel>
  </diagram>
  <diagram id="GM_Trup_qoS6hAPkN4Z_" name="Page-6">
    <mxGraphModel dx="1186" dy="693" grid="1" gridSize="10" guides="1" tooltips="1" connect="1" arrows="1" fold="1" page="1" pageScale="1" pageWidth="827" pageHeight="1169" math="0" shadow="0">
      <root>
        <mxCell id="wmOV2_l1JEA6Oz6AIZT5-0" />
        <mxCell id="wmOV2_l1JEA6Oz6AIZT5-1" parent="wmOV2_l1JEA6Oz6AIZT5-0" />
        <mxCell id="wmOV2_l1JEA6Oz6AIZT5-44" value="" style="rounded=0;whiteSpace=wrap;html=1;fontSize=16;fillColor=#d0cee2;strokeColor=none;" vertex="1" parent="wmOV2_l1JEA6Oz6AIZT5-1">
          <mxGeometry x="520" y="260" width="180" height="300" as="geometry" />
        </mxCell>
        <mxCell id="wmOV2_l1JEA6Oz6AIZT5-48" value="" style="rounded=0;whiteSpace=wrap;html=1;fontSize=16;fillColor=#fad9d5;strokeColor=none;" vertex="1" parent="wmOV2_l1JEA6Oz6AIZT5-1">
          <mxGeometry x="700" y="260" width="180" height="300" as="geometry" />
        </mxCell>
        <mxCell id="wmOV2_l1JEA6Oz6AIZT5-43" value="" style="rounded=0;whiteSpace=wrap;html=1;fontSize=16;fillColor=#fff2cc;strokeColor=none;" vertex="1" parent="wmOV2_l1JEA6Oz6AIZT5-1">
          <mxGeometry x="80" y="402" width="440" height="157" as="geometry" />
        </mxCell>
        <mxCell id="wmOV2_l1JEA6Oz6AIZT5-39" value="" style="rounded=0;whiteSpace=wrap;html=1;fontSize=16;fillColor=#d5e8d4;strokeColor=none;" vertex="1" parent="wmOV2_l1JEA6Oz6AIZT5-1">
          <mxGeometry x="80" y="260" width="440" height="142" as="geometry" />
        </mxCell>
        <mxCell id="wmOV2_l1JEA6Oz6AIZT5-3" value="权限的构成" style="text;html=1;strokeColor=none;fillColor=none;align=center;verticalAlign=middle;whiteSpace=wrap;rounded=0;fontSize=21;" vertex="1" parent="wmOV2_l1JEA6Oz6AIZT5-1">
          <mxGeometry x="430" y="50" width="170" height="50" as="geometry" />
        </mxCell>
        <mxCell id="wmOV2_l1JEA6Oz6AIZT5-4" value="页面权限" style="text;html=1;strokeColor=none;fillColor=none;align=center;verticalAlign=middle;whiteSpace=wrap;rounded=0;fontSize=16;" vertex="1" parent="wmOV2_l1JEA6Oz6AIZT5-1">
          <mxGeometry x="310" y="160" width="120" height="50" as="geometry" />
        </mxCell>
        <mxCell id="wmOV2_l1JEA6Oz6AIZT5-5" value="操作权限" style="text;html=1;strokeColor=none;fillColor=none;align=center;verticalAlign=middle;whiteSpace=wrap;rounded=0;fontSize=16;" vertex="1" parent="wmOV2_l1JEA6Oz6AIZT5-1">
          <mxGeometry x="460" y="160" width="110" height="50" as="geometry" />
        </mxCell>
        <mxCell id="wmOV2_l1JEA6Oz6AIZT5-7" value="数据权限" style="text;html=1;strokeColor=none;fillColor=none;align=center;verticalAlign=middle;whiteSpace=wrap;rounded=0;fontSize=16;" vertex="1" parent="wmOV2_l1JEA6Oz6AIZT5-1">
          <mxGeometry x="610" y="160" width="100" height="50" as="geometry" />
        </mxCell>
        <mxCell id="wmOV2_l1JEA6Oz6AIZT5-10" value="" style="endArrow=classic;html=1;exitX=0.5;exitY=1;exitDx=0;exitDy=0;entryX=0.5;entryY=0;entryDx=0;entryDy=0;" edge="1" parent="wmOV2_l1JEA6Oz6AIZT5-1" source="wmOV2_l1JEA6Oz6AIZT5-3" target="wmOV2_l1JEA6Oz6AIZT5-4">
          <mxGeometry width="50" height="50" relative="1" as="geometry">
            <mxPoint x="440" y="360" as="sourcePoint" />
            <mxPoint x="490" y="310" as="targetPoint" />
          </mxGeometry>
        </mxCell>
        <mxCell id="wmOV2_l1JEA6Oz6AIZT5-11" value="" style="endArrow=classic;html=1;exitX=0.5;exitY=1;exitDx=0;exitDy=0;entryX=0.5;entryY=0;entryDx=0;entryDy=0;" edge="1" parent="wmOV2_l1JEA6Oz6AIZT5-1" source="wmOV2_l1JEA6Oz6AIZT5-3" target="wmOV2_l1JEA6Oz6AIZT5-5">
          <mxGeometry width="50" height="50" relative="1" as="geometry">
            <mxPoint x="505" y="100" as="sourcePoint" />
            <mxPoint x="372.5" y="170" as="targetPoint" />
          </mxGeometry>
        </mxCell>
        <mxCell id="wmOV2_l1JEA6Oz6AIZT5-12" value="" style="endArrow=classic;html=1;exitX=0.5;exitY=1;exitDx=0;exitDy=0;entryX=0.5;entryY=0;entryDx=0;entryDy=0;" edge="1" parent="wmOV2_l1JEA6Oz6AIZT5-1" source="wmOV2_l1JEA6Oz6AIZT5-3" target="wmOV2_l1JEA6Oz6AIZT5-7">
          <mxGeometry width="50" height="50" relative="1" as="geometry">
            <mxPoint x="505" y="100" as="sourcePoint" />
            <mxPoint x="505" y="170" as="targetPoint" />
          </mxGeometry>
        </mxCell>
        <mxCell id="wmOV2_l1JEA6Oz6AIZT5-15" value="" style="edgeStyle=orthogonalEdgeStyle;rounded=0;orthogonalLoop=1;jettySize=auto;html=1;fontSize=16;" edge="1" parent="wmOV2_l1JEA6Oz6AIZT5-1" source="wmOV2_l1JEA6Oz6AIZT5-13" target="wmOV2_l1JEA6Oz6AIZT5-14">
          <mxGeometry relative="1" as="geometry" />
        </mxCell>
        <mxCell id="wmOV2_l1JEA6Oz6AIZT5-13" value="页面" style="ellipse;whiteSpace=wrap;html=1;aspect=fixed;fontSize=16;fillColor=#eeeeee;strokeColor=none;" vertex="1" parent="wmOV2_l1JEA6Oz6AIZT5-1">
          <mxGeometry x="266" y="278" width="80" height="80" as="geometry" />
        </mxCell>
        <mxCell id="wmOV2_l1JEA6Oz6AIZT5-14" value="操作2" style="ellipse;whiteSpace=wrap;html=1;aspect=fixed;fontSize=16;fillColor=#f9f7ed;strokeColor=none;" vertex="1" parent="wmOV2_l1JEA6Oz6AIZT5-1">
          <mxGeometry x="266" y="438" width="80" height="80" as="geometry" />
        </mxCell>
        <mxCell id="wmOV2_l1JEA6Oz6AIZT5-18" value="操作3" style="ellipse;whiteSpace=wrap;html=1;aspect=fixed;fontSize=16;fillColor=#f9f7ed;strokeColor=none;" vertex="1" parent="wmOV2_l1JEA6Oz6AIZT5-1">
          <mxGeometry x="400" y="438" width="80" height="80" as="geometry" />
        </mxCell>
        <mxCell id="wmOV2_l1JEA6Oz6AIZT5-16" value="操作1" style="ellipse;whiteSpace=wrap;html=1;aspect=fixed;fontSize=16;fillColor=#f9f7ed;strokeColor=none;" vertex="1" parent="wmOV2_l1JEA6Oz6AIZT5-1">
          <mxGeometry x="120" y="438" width="80" height="80" as="geometry" />
        </mxCell>
        <mxCell id="wmOV2_l1JEA6Oz6AIZT5-21" value="" style="endArrow=classic;html=1;fontSize=16;exitX=0.5;exitY=1;exitDx=0;exitDy=0;entryX=0;entryY=0;entryDx=0;entryDy=0;" edge="1" parent="wmOV2_l1JEA6Oz6AIZT5-1" source="wmOV2_l1JEA6Oz6AIZT5-13" target="wmOV2_l1JEA6Oz6AIZT5-18">
          <mxGeometry width="50" height="50" relative="1" as="geometry">
            <mxPoint x="486" y="318" as="sourcePoint" />
            <mxPoint x="536" y="268" as="targetPoint" />
          </mxGeometry>
        </mxCell>
        <mxCell id="wmOV2_l1JEA6Oz6AIZT5-22" value="查" style="rounded=0;whiteSpace=wrap;html=1;fontSize=16;strokeColor=none;fillColor=#eeeeee;" vertex="1" parent="wmOV2_l1JEA6Oz6AIZT5-1">
          <mxGeometry x="576" y="268" width="70" height="40" as="geometry" />
        </mxCell>
        <mxCell id="wmOV2_l1JEA6Oz6AIZT5-29" value="增" style="rounded=0;whiteSpace=wrap;html=1;fontSize=16;strokeColor=none;fillColor=#eeeeee;" vertex="1" parent="wmOV2_l1JEA6Oz6AIZT5-1">
          <mxGeometry x="576" y="348" width="70" height="40" as="geometry" />
        </mxCell>
        <mxCell id="wmOV2_l1JEA6Oz6AIZT5-31" value="删" style="rounded=0;whiteSpace=wrap;html=1;fontSize=16;fillColor=#eeeeee;strokeColor=none;" vertex="1" parent="wmOV2_l1JEA6Oz6AIZT5-1">
          <mxGeometry x="576" y="428" width="70" height="40" as="geometry" />
        </mxCell>
        <mxCell id="wmOV2_l1JEA6Oz6AIZT5-33" value="改" style="rounded=0;whiteSpace=wrap;html=1;fontSize=16;fillColor=#eeeeee;strokeColor=none;" vertex="1" parent="wmOV2_l1JEA6Oz6AIZT5-1">
          <mxGeometry x="576" y="508" width="70" height="40" as="geometry" />
        </mxCell>
        <mxCell id="wmOV2_l1JEA6Oz6AIZT5-35" value="数据" style="whiteSpace=wrap;html=1;aspect=fixed;fontSize=16;fillColor=#eeeeee;strokeColor=none;" vertex="1" parent="wmOV2_l1JEA6Oz6AIZT5-1">
          <mxGeometry x="740" y="370" width="80" height="80" as="geometry" />
        </mxCell>
        <mxCell id="wmOV2_l1JEA6Oz6AIZT5-46" value="" style="endArrow=classic;html=1;fontSize=16;exitX=0.5;exitY=1;exitDx=0;exitDy=0;" edge="1" parent="wmOV2_l1JEA6Oz6AIZT5-1" source="wmOV2_l1JEA6Oz6AIZT5-13">
          <mxGeometry width="50" height="50" relative="1" as="geometry">
            <mxPoint x="310" y="360" as="sourcePoint" />
            <mxPoint x="178" y="440" as="targetPoint" />
          </mxGeometry>
        </mxCell>
        <mxCell id="wmOV2_l1JEA6Oz6AIZT5-51" value="" style="shape=flexArrow;endArrow=classic;html=1;fontSize=16;fillColor=#f8cecc;strokeColor=none;gradientColor=#ea6b66;" edge="1" parent="wmOV2_l1JEA6Oz6AIZT5-1">
          <mxGeometry width="50" height="50" relative="1" as="geometry">
            <mxPoint x="490" y="340" as="sourcePoint" />
            <mxPoint x="550" y="340" as="targetPoint" />
          </mxGeometry>
        </mxCell>
        <mxCell id="wmOV2_l1JEA6Oz6AIZT5-54" value="" style="shape=flexArrow;endArrow=classic;html=1;fontSize=16;fillColor=#f8cecc;strokeColor=none;gradientColor=#ea6b66;" edge="1" parent="wmOV2_l1JEA6Oz6AIZT5-1">
          <mxGeometry width="50" height="50" relative="1" as="geometry">
            <mxPoint x="490" y="468" as="sourcePoint" />
            <mxPoint x="550" y="468" as="targetPoint" />
          </mxGeometry>
        </mxCell>
        <mxCell id="wmOV2_l1JEA6Oz6AIZT5-55" value="" style="shape=flexArrow;endArrow=classic;html=1;fontSize=16;fillColor=#f8cecc;strokeColor=none;gradientColor=#ea6b66;" edge="1" parent="wmOV2_l1JEA6Oz6AIZT5-1">
          <mxGeometry width="50" height="50" relative="1" as="geometry">
            <mxPoint x="670" y="403" as="sourcePoint" />
            <mxPoint x="730" y="403" as="targetPoint" />
          </mxGeometry>
        </mxCell>
      </root>
    </mxGraphModel>
  </diagram>
</mxfile>
